<svg width="72" height="72" viewBox="0 0 72 72" fill="none" xmlns="http://www.w3.org/2000/svg">
<mask id="mask0_114_2" style="mask-type:alpha" maskUnits="userSpaceOnUse" x="0" y="0" width="72" height="72">
<rect width="72" height="72" fill="#D9D9D9"/>
</mask>
<g mask="url(#mask0_114_2)">
<path d="M13.8749 66C13.0249 66 12.2874 65.6875 11.6624 65.0625C11.0374 64.4375 10.7249 63.7 10.7249 62.85V54.975C10.7249 50.475 12.1249 46.5 14.9249 43.05C17.7249 39.6 21.3249 37.4 25.7249 36.45C23.7249 37.85 22.1749 39.6125 21.0749 41.7375C19.9749 43.8625 19.4249 46.15 19.4249 48.6V62.85C19.4249 63.4 19.4999 63.95 19.6499 64.5C19.7999 65.05 20.0499 65.55 20.3999 66H13.8749ZM24.8999 66C24.0499 66 23.3124 65.6875 22.6874 65.0625C22.0624 64.4375 21.7499 63.7 21.7499 62.85V48.6C21.7499 45.1 22.9874 42.125 25.4624 39.675C27.9374 37.225 30.9249 36 34.4249 36H48.5999C52.0999 36 55.0749 37.225 57.5249 39.675C59.9749 42.125 61.1999 45.1 61.1999 48.6V53.4C61.1999 56.9 59.9749 59.875 57.5249 62.325C55.0749 64.775 52.0999 66 48.5999 66H24.8999ZM35.9999 29.7C32.6999 29.7 29.8999 28.55 27.5999 26.25C25.2999 23.95 24.1499 21.15 24.1499 17.85C24.1499 14.55 25.2999 11.75 27.5999 9.45C29.8999 7.15 32.6999 6 35.9999 6C39.2999 6 42.0999 7.15 44.3999 9.45C46.6999 11.75 47.8499 14.55 47.8499 17.85C47.8499 21.15 46.6999 23.95 44.3999 26.25C42.0999 28.55 39.2999 29.7 35.9999 29.7Z" fill="#221E22"/>
</g>
</svg>
