<svg width="702" height="119" viewBox="0 0 702 119" fill="none" xmlns="http://www.w3.org/2000/svg">
<path d="M116.014 97.536C109.358 97.536 103.406 96.32 98.1581 93.888C92.9741 91.456 88.8781 88.064 85.8701 83.712C82.8621 79.296 81.3581 74.176 81.3581 68.352C81.3581 62.656 82.7981 57.664 85.6781 53.376C88.5581 49.024 92.4941 45.632 97.4861 43.2C102.542 40.768 108.238 39.552 114.574 39.552C121.166 39.552 126.766 40.992 131.374 43.872C136.046 46.688 139.63 50.688 142.126 55.872C144.686 61.056 145.966 67.168 145.966 74.208H97.1981V62.4H134.926L128.494 66.528C128.238 63.712 127.534 61.344 126.382 59.424C125.23 57.44 123.694 55.936 121.774 54.912C119.918 53.888 117.678 53.376 115.054 53.376C112.174 53.376 109.71 53.952 107.662 55.104C105.614 56.256 104.014 57.856 102.862 59.904C101.71 61.888 101.134 64.224 101.134 66.912C101.134 70.368 101.902 73.312 103.438 75.744C105.038 78.112 107.342 79.936 110.35 81.216C113.422 82.496 117.166 83.136 121.582 83.136C125.614 83.136 129.614 82.624 133.582 81.6C137.614 80.512 141.262 79.008 144.526 77.088V89.568C140.75 92.128 136.43 94.112 131.566 95.52C126.766 96.864 121.582 97.536 116.014 97.536ZM178.54 86.688L171.82 86.592L190.828 41.184H211.756L186.124 96H163.756L138.124 41.184H159.82L178.54 86.688ZM238.864 97.536C232.208 97.536 226.256 96.32 221.008 93.888C215.824 91.456 211.728 88.064 208.72 83.712C205.712 79.296 204.208 74.176 204.208 68.352C204.208 62.656 205.648 57.664 208.528 53.376C211.408 49.024 215.344 45.632 220.336 43.2C225.392 40.768 231.088 39.552 237.424 39.552C244.016 39.552 249.616 40.992 254.224 43.872C258.896 46.688 262.48 50.688 264.976 55.872C267.536 61.056 268.816 67.168 268.816 74.208H220.048V62.4H257.776L251.344 66.528C251.088 63.712 250.384 61.344 249.232 59.424C248.08 57.44 246.544 55.936 244.624 54.912C242.768 53.888 240.528 53.376 237.904 53.376C235.024 53.376 232.56 53.952 230.512 55.104C228.464 56.256 226.864 57.856 225.712 59.904C224.56 61.888 223.984 64.224 223.984 66.912C223.984 70.368 224.752 73.312 226.288 75.744C227.888 78.112 230.192 79.936 233.2 81.216C236.272 82.496 240.016 83.136 244.432 83.136C248.464 83.136 252.464 82.624 256.432 81.6C260.464 80.512 264.112 79.008 267.376 77.088V89.568C263.6 92.128 259.28 94.112 254.416 95.52C249.616 96.864 244.432 97.536 238.864 97.536ZM267.131 41.184H286.811L290.363 63.072V96H270.779V60.096L267.131 41.184ZM310.523 39.552C315.771 39.552 320.251 40.608 323.963 42.72C327.675 44.832 330.491 47.808 332.411 51.648C334.395 55.488 335.387 60.032 335.387 65.28V96H315.803V68.16C315.803 64.064 314.747 60.928 312.635 58.752C310.587 56.576 307.611 55.488 303.707 55.488C301.019 55.488 298.651 56.064 296.603 57.216C294.619 58.368 293.083 60 291.995 62.112C290.907 64.224 290.363 66.72 290.363 69.6L284.315 66.432C285.083 60.608 286.715 55.712 289.211 51.744C291.707 47.712 294.779 44.672 298.427 42.624C302.075 40.576 306.107 39.552 310.523 39.552ZM332.629 55.68V47.136L343.765 42.624L352.213 26.4H363.349V41.184H386.389V55.68H363.349V71.808C363.349 75.776 364.149 78.56 365.749 80.16C367.349 81.76 370.261 82.56 374.485 82.56C377.173 82.56 379.541 82.336 381.589 81.888C383.701 81.376 385.621 80.736 387.349 79.968V94.752C385.429 95.456 382.901 96.096 379.765 96.672C376.629 97.248 373.397 97.536 370.069 97.536C363.989 97.536 358.997 96.608 355.093 94.752C351.253 92.896 348.405 90.24 346.549 86.784C344.693 83.264 343.765 79.168 343.765 74.496V55.68H332.629ZM451.25 78.144C451.25 82.368 449.97 85.92 447.41 88.8C444.85 91.68 441.202 93.856 436.466 95.328C431.73 96.8 426.034 97.536 419.378 97.536C412.53 97.536 406.514 96.704 401.33 95.04C396.21 93.376 392.21 91.04 389.33 88.032C386.45 85.024 384.914 81.536 384.722 77.568H404.594C405.042 79.04 405.906 80.32 407.186 81.408C408.53 82.432 410.29 83.232 412.466 83.808C414.642 84.32 417.234 84.576 420.242 84.576C424.146 84.576 427.09 84.192 429.074 83.424C431.122 82.656 432.146 81.504 432.146 79.968C432.146 78.752 431.378 77.856 429.842 77.28C428.306 76.64 425.682 76.16 421.97 75.84L412.274 75.072C405.81 74.624 400.658 73.664 396.818 72.192C393.042 70.656 390.322 68.704 388.658 66.336C386.994 63.904 386.162 61.152 386.162 58.08C386.162 53.92 387.442 50.496 390.002 47.808C392.626 45.056 396.242 43.008 400.85 41.664C405.522 40.256 410.962 39.552 417.17 39.552C423.314 39.552 428.786 40.352 433.586 41.952C438.386 43.552 442.226 45.792 445.106 48.672C447.986 51.488 449.65 54.816 450.098 58.656H430.226C429.906 57.44 429.202 56.352 428.114 55.392C427.026 54.368 425.522 53.536 423.602 52.896C421.682 52.256 419.218 51.936 416.21 51.936C412.69 51.936 410.002 52.32 408.146 53.088C406.354 53.856 405.458 54.944 405.458 56.352C405.458 57.44 406.002 58.304 407.09 58.944C408.242 59.584 410.354 60.032 413.426 60.288L426.194 61.248C432.53 61.632 437.522 62.56 441.17 64.032C444.818 65.44 447.41 67.328 448.946 69.696C450.482 72.064 451.25 74.88 451.25 78.144ZM452.31 22.08H471.99V96H452.31V22.08ZM492.054 39.552C497.366 39.552 501.846 40.608 505.494 42.72C509.206 44.832 512.054 47.808 514.038 51.648C516.022 55.488 517.014 60.032 517.014 65.28V96H497.334V68.16C497.334 64.064 496.278 60.928 494.166 58.752C492.118 56.576 489.142 55.488 485.238 55.488C482.55 55.488 480.182 56.064 478.134 57.216C476.15 58.368 474.614 60 473.526 62.112C472.502 64.224 471.99 66.72 471.99 69.6L465.846 66.432C466.614 60.608 468.246 55.712 470.742 51.744C473.238 47.712 476.31 44.672 479.958 42.624C483.67 40.576 487.702 39.552 492.054 39.552ZM569.459 96L566.963 76.224L569.555 68.64L566.963 61.056L569.459 41.184H589.811L586.355 68.544L589.811 96H569.459ZM574.067 68.64C573.171 74.4 571.379 79.456 568.691 83.808C566.067 88.16 562.707 91.552 558.611 93.984C554.579 96.352 549.971 97.536 544.787 97.536C539.411 97.536 534.675 96.352 530.579 93.984C526.547 91.552 523.379 88.16 521.075 83.808C518.771 79.392 517.619 74.336 517.619 68.64C517.619 62.816 518.771 57.728 521.075 53.376C523.379 49.024 526.547 45.632 530.579 43.2C534.675 40.768 539.411 39.552 544.787 39.552C549.971 39.552 554.579 40.768 558.611 43.2C562.707 45.568 566.099 48.928 568.787 53.28C571.475 57.568 573.235 62.688 574.067 68.64ZM537.491 68.64C537.491 71.328 538.035 73.728 539.123 75.84C540.275 77.952 541.843 79.616 543.827 80.832C545.811 81.984 548.083 82.56 550.643 82.56C553.331 82.56 555.859 81.984 558.227 80.832C560.595 79.616 562.675 77.952 564.467 75.84C566.259 73.728 567.603 71.328 568.499 68.64C567.603 65.888 566.259 63.456 564.467 61.344C562.675 59.232 560.595 57.568 558.227 56.352C555.859 55.136 553.331 54.528 550.643 54.528C548.083 54.528 545.811 55.136 543.827 56.352C541.843 57.568 540.275 59.232 539.123 61.344C538.035 63.456 537.491 65.888 537.491 68.64ZM589.443 41.184H609.411L612.675 60.768V96H593.091V59.616L589.443 41.184ZM638.403 40.32V57.024C636.483 56.64 634.659 56.384 632.931 56.256C631.267 56.064 629.731 55.968 628.323 55.968C625.507 55.968 622.915 56.544 620.547 57.696C618.179 58.784 616.259 60.608 614.787 63.168C613.379 65.728 612.675 69.152 612.675 73.44L608.931 68.832C609.443 64.864 610.211 61.152 611.235 57.696C612.259 54.176 613.635 51.072 615.363 48.384C617.155 45.632 619.363 43.488 621.987 41.952C624.611 40.352 627.811 39.552 631.587 39.552C632.675 39.552 633.795 39.616 634.947 39.744C636.099 39.872 637.251 40.064 638.403 40.32ZM668.558 97.536C661.902 97.536 655.95 96.32 650.702 93.888C645.518 91.456 641.422 88.064 638.414 83.712C635.406 79.296 633.902 74.176 633.902 68.352C633.902 62.656 635.342 57.664 638.222 53.376C641.102 49.024 645.038 45.632 650.03 43.2C655.086 40.768 660.782 39.552 667.118 39.552C673.71 39.552 679.31 40.992 683.918 43.872C688.59 46.688 692.174 50.688 694.67 55.872C697.23 61.056 698.51 67.168 698.51 74.208H649.742V62.4H687.47L681.038 66.528C680.782 63.712 680.078 61.344 678.926 59.424C677.774 57.44 676.238 55.936 674.318 54.912C672.462 53.888 670.222 53.376 667.598 53.376C664.718 53.376 662.254 53.952 660.206 55.104C658.158 56.256 656.558 57.856 655.406 59.904C654.254 61.888 653.678 64.224 653.678 66.912C653.678 70.368 654.446 73.312 655.982 75.744C657.582 78.112 659.886 79.936 662.894 81.216C665.966 82.496 669.71 83.136 674.126 83.136C678.158 83.136 682.158 82.624 686.126 81.6C690.158 80.512 693.806 79.008 697.07 77.088V89.568C693.294 92.128 688.974 94.112 684.11 95.52C679.31 96.864 674.126 97.536 668.558 97.536Z" fill="#F5F5F5"/>
<mask id="mask0_62_560" style="mask-type:alpha" maskUnits="userSpaceOnUse" x="0" y="24" width="72" height="72">
<rect y="24" width="72" height="72" fill="#D9D9D9"/>
</mask>
<g mask="url(#mask0_62_560)">
<path d="M13.8749 90C13.0249 90 12.2874 89.6875 11.6624 89.0625C11.0374 88.4375 10.7249 87.7 10.7249 86.85V78.975C10.7249 74.475 12.1249 70.5 14.9249 67.05C17.7249 63.6 21.3249 61.4 25.7249 60.45C23.7249 61.85 22.1749 63.6125 21.0749 65.7375C19.9749 67.8625 19.4249 70.15 19.4249 72.6V86.85C19.4249 87.4 19.4999 87.95 19.6499 88.5C19.7999 89.05 20.0499 89.55 20.3999 90H13.8749ZM24.8999 90C24.0499 90 23.3124 89.6875 22.6874 89.0625C22.0624 88.4375 21.7499 87.7 21.7499 86.85V72.6C21.7499 69.1 22.9874 66.125 25.4624 63.675C27.9374 61.225 30.9249 60 34.4249 60H48.5999C52.0999 60 55.0749 61.225 57.5249 63.675C59.9749 66.125 61.1999 69.1 61.1999 72.6V77.4C61.1999 80.9 59.9749 83.875 57.5249 86.325C55.0749 88.775 52.0999 90 48.5999 90H24.8999ZM35.9999 53.7C32.6999 53.7 29.8999 52.55 27.5999 50.25C25.2999 47.95 24.1499 45.15 24.1499 41.85C24.1499 38.55 25.2999 35.75 27.5999 33.45C29.8999 31.15 32.6999 30 35.9999 30C39.2999 30 42.0999 31.15 44.3999 33.45C46.6999 35.75 47.8499 38.55 47.8499 41.85C47.8499 45.15 46.6999 47.95 44.3999 50.25C42.0999 52.55 39.2999 53.7 35.9999 53.7Z" fill="#F5F5F5"/>
</g>
</svg>
