<svg class="size-5" fill="none" viewBox="0 0 24 24" xmlns="http://www.w3.org/2000/svg" stroke="currentColor" stroke-width="1.5">
<path stroke-linecap="round" stroke-linejoin="round" d="M30.2083 126.875C26.8854 126.875 24.0408 125.692 21.6745 123.325C19.3082 120.959 18.125 118.114 18.125 114.792V30.2082C18.125 26.8853 19.3082 24.0407 21.6745 21.6744C24.0408 19.308 26.8854 18.1249 30.2083 18.1249H84.1302L72.0469 30.2082H30.2083V114.792H114.792V72.802L126.875 60.7186V114.792C126.875 118.114 125.692 120.959 123.326 123.325C120.959 125.692 118.115 126.875 114.792 126.875H30.2083ZM54.375 90.6249V64.9478L109.807 9.5155C111.016 8.30717 112.375 7.40092 113.885 6.79675C115.396 6.19259 116.906 5.8905 118.417 5.8905C120.028 5.8905 121.563 6.19259 123.023 6.79675C124.484 7.40092 125.818 8.30717 127.026 9.5155L135.484 18.1249C136.592 19.3332 137.448 20.6674 138.052 22.1275C138.656 23.5876 138.958 25.0728 138.958 26.5832C138.958 28.0936 138.681 29.5789 138.128 31.0389C137.574 32.499 136.693 33.8332 135.484 35.0415L80.0521 90.6249H54.375ZM66.4583 78.5416H74.9167L109.958 43.4999L105.729 39.2707L101.349 35.0415L66.4583 69.9322V78.5416Z"/>
</svg>
